{
	"asset":{
		"generator":"Khronos glTF Blender I/O v3.5.30",
		"version":"2.0"
	},
	"extensionsUsed":[
		"KHR_materials_specular",
		"KHR_materials_ior"
	],
	"scene":0,
	"scenes":[
		{
			"name":"Scene",
			"nodes":[
				0
			]
		},
		{
			"name":"Scene.001"
		}
	],
	"nodes":[
		{
			"mesh":0,
			"name":"mesh00172"
		}
	],
	"materials":[
		{
			"doubleSided":true,
			"name":"mesh0017mat",
			"pbrMetallicRoughness":{}
		},
		{
			"doubleSided":true,
			"name":"colors",
			"pbrMetallicRoughness":{}
		},
		{
			"doubleSided":true,
			"extensions":{
				"KHR_materials_specular":{
					"specularColorFactor":[
						1.8216337627026584,
						1.8216337627026584,
						1.8216337627026584
					]
				},
				"KHR_materials_ior":{
					"ior":1.4500000476837158
				}
			},
			"name":"mesh0018mat",
			"pbrMetallicRoughness":{
				"baseColorTexture":{
					"index":0
				},
				"metallicFactor":0,
				"roughnessFactor":0.6136363744735718
			}
		},
		{
			"doubleSided":true,
			"name":"mesh0019mat",
			"pbrMetallicRoughness":{}
		},
		{
			"doubleSided":true,
			"extensions":{
				"KHR_materials_specular":{
					"specularColorFactor":[
						0,
						0,
						0
					]
				},
				"KHR_materials_ior":{
					"ior":1.4500000476837158
				}
			},
			"name":"mesh0021mat",
			"pbrMetallicRoughness":{
				"baseColorTexture":{
					"index":1
				},
				"metallicFactor":0
			}
		},
		{
			"doubleSided":true,
			"name":"mesh0017mat.001",
			"pbrMetallicRoughness":{}
		},
		{
			"doubleSided":true,
			"name":"zapatetes",
			"pbrMetallicRoughness":{}
		}
	],
	"meshes":[
		{
			"name":"mesh00172",
			"primitives":[
				{
					"attributes":{
						"POSITION":0,
						"TEXCOORD_0":1,
						"NORMAL":2
					},
					"indices":3,
					"material":0
				},
				{
					"attributes":{
						"POSITION":4,
						"TEXCOORD_0":5,
						"NORMAL":6
					},
					"indices":7,
					"material":1
				},
				{
					"attributes":{
						"POSITION":8,
						"TEXCOORD_0":9,
						"NORMAL":10
					},
					"indices":11,
					"material":2
				},
				{
					"attributes":{
						"POSITION":12,
						"TEXCOORD_0":13,
						"NORMAL":14
					},
					"indices":15,
					"material":3
				},
				{
					"attributes":{
						"POSITION":16,
						"TEXCOORD_0":17,
						"NORMAL":18
					},
					"indices":19,
					"material":4
				},
				{
					"attributes":{
						"POSITION":20,
						"TEXCOORD_0":21,
						"NORMAL":22
					},
					"indices":23,
					"material":5
				},
				{
					"attributes":{
						"POSITION":24,
						"TEXCOORD_0":25,
						"NORMAL":26
					},
					"indices":27,
					"material":6
				}
			]
		}
	],
	"textures":[
		{
			"sampler":0,
			"source":0
		},
		{
			"sampler":0,
			"source":1
		}
	],
	"images":[
		{
			"bufferView":12,
			"mimeType":"image/png",
			"name":"hat"
		},
		{
			"bufferView":21,
			"mimeType":"image/png",
			"name":"t0021_0"
		}
	],
	"accessors":[
		{
			"bufferView":0,
			"componentType":5126,
			"count":5610,
			"max":[
				0.12319314479827881,
				0.12717491388320923,
				0.15111693739891052
			],
			"min":[
				-0.2174292802810669,
				-0.2095407396554947,
				-0.11273137480020523
			],
			"type":"VEC3"
		},
		{
			"bufferView":1,
			"componentType":5126,
			"count":5610,
			"type":"VEC2"
		},
		{
			"bufferView":2,
			"componentType":5126,
			"count":5610,
			"type":"VEC3"
		},
		{
			"bufferView":3,
			"componentType":5123,
			"count":30528,
			"type":"SCALAR"
		},
		{
			"bufferView":4,
			"componentType":5126,
			"count":7160,
			"max":[
				0.07514027506113052,
				0.1466456949710846,
				0.17953573167324066
			],
			"min":[
				-0.7335099577903748,
				-0.20845575630664825,
				-0.2203584909439087
			],
			"type":"VEC3"
		},
		{
			"bufferView":5,
			"componentType":5126,
			"count":7160,
			"type":"VEC2"
		},
		{
			"bufferView":6,
			"componentType":5126,
			"count":7160,
			"type":"VEC3"
		},
		{
			"bufferView":7,
			"componentType":5123,
			"count":33570,
			"type":"SCALAR"
		},
		{
			"bufferView":8,
			"componentType":5126,
			"count":4996,
			"max":[
				0.1460135281085968,
				0.22957126796245575,
				0.28014954924583435
			],
			"min":[
				-0.2646198272705078,
				-0.35170066356658936,
				-0.19377225637435913
			],
			"type":"VEC3"
		},
		{
			"bufferView":9,
			"componentType":5126,
			"count":4996,
			"type":"VEC2"
		},
		{
			"bufferView":10,
			"componentType":5126,
			"count":4996,
			"type":"VEC3"
		},
		{
			"bufferView":11,
			"componentType":5123,
			"count":27300,
			"type":"SCALAR"
		},
		{
			"bufferView":13,
			"componentType":5126,
			"count":1310,
			"max":[
				-0.031555648893117905,
				0.14617158472537994,
				0.13451966643333435
			],
			"min":[
				-0.21742931008338928,
				-0.21551695466041565,
				-0.02883128635585308
			],
			"type":"VEC3"
		},
		{
			"bufferView":14,
			"componentType":5126,
			"count":1310,
			"type":"VEC2"
		},
		{
			"bufferView":15,
			"componentType":5126,
			"count":1310,
			"type":"VEC3"
		},
		{
			"bufferView":16,
			"componentType":5123,
			"count":7488,
			"type":"SCALAR"
		},
		{
			"bufferView":17,
			"componentType":5126,
			"count":499,
			"max":[
				0.03607559949159622,
				0.02732006460428238,
				-0.02652190998196602
			],
			"min":[
				-0.08357374370098114,
				-0.055655255913734436,
				-0.10157278925180435
			],
			"type":"VEC3"
		},
		{
			"bufferView":18,
			"componentType":5126,
			"count":499,
			"type":"VEC2"
		},
		{
			"bufferView":19,
			"componentType":5126,
			"count":499,
			"type":"VEC3"
		},
		{
			"bufferView":20,
			"componentType":5123,
			"count":2496,
			"type":"SCALAR"
		},
		{
			"bufferView":22,
			"componentType":5126,
			"count":10772,
			"max":[
				0.02066952735185623,
				0.3865787982940674,
				0.418649822473526
			],
			"min":[
				-0.25534874200820923,
				-0.4248827397823334,
				-0.20813678205013275
			],
			"type":"VEC3"
		},
		{
			"bufferView":23,
			"componentType":5126,
			"count":10772,
			"type":"VEC2"
		},
		{
			"bufferView":24,
			"componentType":5126,
			"count":10772,
			"type":"VEC3"
		},
		{
			"bufferView":25,
			"componentType":5123,
			"count":58296,
			"type":"SCALAR"
		},
		{
			"bufferView":26,
			"componentType":5126,
			"count":1201,
			"max":[
				-0.49472424387931824,
				0.15649326145648956,
				0.12668897211551666
			],
			"min":[
				-0.7287220358848572,
				-0.1719139963388443,
				-0.08361677080392838
			],
			"type":"VEC3"
		},
		{
			"bufferView":27,
			"componentType":5126,
			"count":1201,
			"type":"VEC2"
		},
		{
			"bufferView":28,
			"componentType":5126,
			"count":1201,
			"type":"VEC3"
		},
		{
			"bufferView":29,
			"componentType":5123,
			"count":3864,
			"type":"SCALAR"
		}
	],
	"bufferViews":[
		{
			"buffer":0,
			"byteLength":67320,
			"byteOffset":0,
			"target":34962
		},
		{
			"buffer":0,
			"byteLength":44880,
			"byteOffset":67320,
			"target":34962
		},
		{
			"buffer":0,
			"byteLength":67320,
			"byteOffset":112200,
			"target":34962
		},
		{
			"buffer":0,
			"byteLength":61056,
			"byteOffset":179520,
			"target":34963
		},
		{
			"buffer":0,
			"byteLength":85920,
			"byteOffset":240576,
			"target":34962
		},
		{
			"buffer":0,
			"byteLength":57280,
			"byteOffset":326496,
			"target":34962
		},
		{
			"buffer":0,
			"byteLength":85920,
			"byteOffset":383776,
			"target":34962
		},
		{
			"buffer":0,
			"byteLength":67140,
			"byteOffset":469696,
			"target":34963
		},
		{
			"buffer":0,
			"byteLength":59952,
			"byteOffset":536836,
			"target":34962
		},
		{
			"buffer":0,
			"byteLength":39968,
			"byteOffset":596788,
			"target":34962
		},
		{
			"buffer":0,
			"byteLength":59952,
			"byteOffset":636756,
			"target":34962
		},
		{
			"buffer":0,
			"byteLength":54600,
			"byteOffset":696708,
			"target":34963
		},
		{
			"buffer":0,
			"byteLength":2982,
			"byteOffset":751308
		},
		{
			"buffer":0,
			"byteLength":15720,
			"byteOffset":754292,
			"target":34962
		},
		{
			"buffer":0,
			"byteLength":10480,
			"byteOffset":770012,
			"target":34962
		},
		{
			"buffer":0,
			"byteLength":15720,
			"byteOffset":780492,
			"target":34962
		},
		{
			"buffer":0,
			"byteLength":14976,
			"byteOffset":796212,
			"target":34963
		},
		{
			"buffer":0,
			"byteLength":5988,
			"byteOffset":811188,
			"target":34962
		},
		{
			"buffer":0,
			"byteLength":3992,
			"byteOffset":817176,
			"target":34962
		},
		{
			"buffer":0,
			"byteLength":5988,
			"byteOffset":821168,
			"target":34962
		},
		{
			"buffer":0,
			"byteLength":4992,
			"byteOffset":827156,
			"target":34963
		},
		{
			"buffer":0,
			"byteLength":2859,
			"byteOffset":832148
		},
		{
			"buffer":0,
			"byteLength":129264,
			"byteOffset":835008,
			"target":34962
		},
		{
			"buffer":0,
			"byteLength":86176,
			"byteOffset":964272,
			"target":34962
		},
		{
			"buffer":0,
			"byteLength":129264,
			"byteOffset":1050448,
			"target":34962
		},
		{
			"buffer":0,
			"byteLength":116592,
			"byteOffset":1179712,
			"target":34963
		},
		{
			"buffer":0,
			"byteLength":14412,
			"byteOffset":1296304,
			"target":34962
		},
		{
			"buffer":0,
			"byteLength":9608,
			"byteOffset":1310716,
			"target":34962
		},
		{
			"buffer":0,
			"byteLength":14412,
			"byteOffset":1320324,
			"target":34962
		},
		{
			"buffer":0,
			"byteLength":7728,
			"byteOffset":1334736,
			"target":34963
		}
	],
	"samplers":[
		{
			"magFilter":9729,
			"minFilter":9987
		}
	],
	"buffers":[
		{
			"byteLength":1342464,
			"uri":"data:application/octet-stream;base64,"
		}
	]
}
